<?xml version="1.0" encoding="utf-8"?>
<!-- Generator: Adobe Illustrator 17.1.0, SVG Export Plug-In . SVG Version: 6.00 Build 0)  -->
<!DOCTYPE svg PUBLIC "-//W3C//DTD SVG 1.1//EN" "http://www.w3.org/Graphics/SVG/1.1/DTD/svg11.dtd">
<svg version="1.1" id="Layer_1" xmlns="http://www.w3.org/2000/svg" xmlns:xlink="http://www.w3.org/1999/xlink" x="0px" y="0px"
	 viewBox="0 0 40 40" enable-background="new 0 0 40 40" xml:space="preserve">
<g>
	<g>
		<path fill="#FFFFFF" d="M21.7,21.3l-0.8-0.6c-0.3-0.2-0.6-0.5-0.6-1c0-0.5,0.3-0.8,0.7-1.1c1-0.8,1.9-1.6,1.9-3.3
			c0-1.8-1.1-2.7-1.6-3.1h1.4l1.5-0.9h-4.6c-1.3,0-3.1,0.3-4.4,1.4c-1,0.9-1.5,2-1.5,3.1c0,1.8,1.4,3.7,3.9,3.7c0.2,0,0.5,0,0.7,0
			c-0.1,0.3-0.2,0.5-0.2,0.9c0,0.7,0.4,1.2,0.7,1.6c-1,0.1-3,0.2-4.4,1.1c-1.4,0.8-1.8,2-1.8,2.8c0,1.7,1.6,3.3,5,3.3
			c4,0,6.1-2.2,6.1-4.4C23.6,22.9,22.7,22.1,21.7,21.3z M18.6,18.6c-2,0-2.9-2.6-2.9-4.1c0-0.6,0.1-1.2,0.5-1.7
			c0.4-0.5,1-0.8,1.6-0.8c1.9,0,2.9,2.6,2.9,4.3c0,0.4,0,1.2-0.6,1.7C19.8,18.3,19.2,18.6,18.6,18.6z M18.7,27.9
			c-2.5,0-4.1-1.2-4.1-2.8c0-1.7,1.5-2.2,2-2.4c1-0.3,2.2-0.4,2.4-0.4c0.2,0,0.3,0,0.5,0c1.8,1.3,2.5,1.9,2.5,3.1
			C22.1,26.9,20.9,27.9,18.7,27.9z"/>
		<polygon fill="#FFFFFF" points="27.5,18.6 27.5,16.2 26.4,16.2 26.4,18.6 24.1,18.6 24.1,19.7 26.4,19.7 26.4,22.1 27.5,22.1 
			27.5,19.7 29.9,19.7 29.9,18.6 		"/>
	</g>
</g>
</svg>
