<?xml version="1.0" encoding="utf-8"?>
<!-- Generator: Adobe Illustrator 17.0.2, SVG Export Plug-In . SVG Version: 6.00 Build 0)  -->
<!DOCTYPE svg PUBLIC "-//W3C//DTD SVG 1.1//EN" "http://www.w3.org/Graphics/SVG/1.1/DTD/svg11.dtd">
<svg version="1.1" id="Layer_1" xmlns="http://www.w3.org/2000/svg" xmlns:xlink="http://www.w3.org/1999/xlink" x="0px" y="0px"
	 width="40px" height="40px" viewBox="0 0 40 40" enable-background="new 0 0 40 40" xml:space="preserve">
<g>
	<path fill="#FFFFFF" d="M21.166,17.571v-0.04c-0.007,0.014-0.018,0.028-0.027,0.04H21.166z"/>
	<path fill="#FFFFFF" d="M14.692,28.294h-4.17v-12.54h4.17V28.294z M12.606,14.041h-0.027c-1.398,0-2.303-0.964-2.303-2.167
		c0-1.23,0.933-2.167,2.357-2.167c1.427,0,2.305,0.938,2.331,2.167C14.965,13.077,14.06,14.041,12.606,14.041z M29.724,28.294
		h-4.169v-6.709c0-1.686-0.603-2.837-2.113-2.837c-1.15,0-1.837,0.779-2.139,1.527c-0.111,0.268-0.138,0.639-0.138,1.016v7.003
		h-4.168c0,0,0.053-11.364,0-12.54h4.168v1.776c0.555-0.857,1.546-2.07,3.758-2.07c2.742,0,4.8,1.79,4.8,5.643V28.294z"/>
</g>
</svg>
