<?xml version="1.0" encoding="utf-8"?>
<!-- Generator: Adobe Illustrator 17.1.0, SVG Export Plug-In . SVG Version: 6.00 Build 0)  -->
<!DOCTYPE svg PUBLIC "-//W3C//DTD SVG 1.1//EN" "http://www.w3.org/Graphics/SVG/1.1/DTD/svg11.dtd">
<svg version="1.1" id="Layer_1" xmlns="http://www.w3.org/2000/svg" xmlns:xlink="http://www.w3.org/1999/xlink" x="0px" y="0px"
	 viewBox="0 0 40 40" enable-background="new 0 0 40 40" xml:space="preserve">
<path fill="#FFFFFF" d="M25.8,14.2c0.2-0.5,0.4-1.6-0.2-2.9c0,0-1-0.3-3.2,1.2c-0.9-0.2-1.8-0.3-2.7-0.3c-1,0-2,0.1-3,0.4
	c-2.3-1.5-3.3-1.2-3.3-1.2c-0.7,1.6-0.2,2.8-0.1,3.1c-0.8,0.8-1.2,1.9-1.2,3.2c0,1,0.1,1.9,0.4,2.6l0.3,0.6c0.8,1.4,2.3,2.3,5,2.6
	c-0.4,0.3-0.8,0.7-0.9,1.4c-0.5,0.2-2.2,0.9-3.2-0.8c0,0-0.6-1-1.6-1.1c0,0-1,0-0.1,0.6c0,0,0.7,0.3,1.2,1.5c0,0,0.6,2.1,3.6,1.4
	v2.1c0,0-0.1,0.8-0.8,1c0,0-0.4,0.3,0,0.4c0,0,1.9,0.2,1.9-1.4v-2.3c0,0-0.1-0.9,0.4-1.2V29c0,0,0,0.9-0.5,1.3c0,0-0.3,0.6,0.4,0.4
	c0,0,1.3-0.2,1.4-1.7l0-3.9h0.3l0,3.9c0.1,1.5,1.4,1.7,1.4,1.7c0.7,0.2,0.4-0.4,0.4-0.4C21.2,30,21.2,29,21.2,29v-3.8
	c0.5,0.4,0.4,1.2,0.4,1.2v2.3c0,1.6,1.9,1.4,1.9,1.4c0.4-0.2,0-0.4,0-0.4c-0.7-0.3-0.8-1-0.8-1v-3.1c0-1.2-0.5-1.8-1-2.2
	c2.9-0.3,4.2-1.2,4.9-2.6l0.2-0.6c0.2-0.8,0.3-1.6,0.3-2.6C27.2,16.2,26.6,15.1,25.8,14.2z"/>
</svg>
