<?xml version="1.0" encoding="utf-8"?>
<!-- Generator: Adobe Illustrator 17.0.2, SVG Export Plug-In . SVG Version: 6.00 Build 0)  -->
<!DOCTYPE svg PUBLIC "-//W3C//DTD SVG 1.1//EN" "http://www.w3.org/Graphics/SVG/1.1/DTD/svg11.dtd">
<svg version="1.1" id="Layer_1" xmlns="http://www.w3.org/2000/svg" xmlns:xlink="http://www.w3.org/1999/xlink" x="0px" y="0px"
	 width="40px" height="40px" viewBox="0 0 40 40" enable-background="new 0 0 40 40" xml:space="preserve">
<path fill="#FFFFFF" d="M27.733,16.035c0.008,0.171,0.012,0.342,0.012,0.515c0,5.273-4.013,11.353-11.353,11.353
	c-2.254,0-4.35-0.66-6.117-1.792c0.313,0.036,0.63,0.055,0.952,0.055c1.871,0,3.589-0.636,4.955-1.707
	c-1.745-0.033-3.219-1.187-3.726-2.77c0.243,0.045,0.493,0.071,0.75,0.071c0.364,0,0.717-0.05,1.051-0.14
	c-1.823-0.368-3.2-1.98-3.2-3.912c0-0.017,0-0.033,0-0.05c0.539,0.299,1.154,0.477,1.808,0.499
	c-1.071-0.715-1.775-1.937-1.775-3.321c0-0.731,0.197-1.417,0.54-2.006c1.967,2.414,4.908,4.003,8.224,4.169
	c-0.068-0.292-0.103-0.596-0.103-0.909c0-2.203,1.787-3.988,3.991-3.988c1.147,0,2.184,0.484,2.912,1.258
	c0.908-0.178,1.763-0.51,2.534-0.969c-0.299,0.933-0.931,1.714-1.754,2.208c0.807-0.095,1.576-0.311,2.291-0.627
	C29.19,14.77,28.513,15.473,27.733,16.035z"/>
</svg>
